<?xml version="1.0" encoding="UTF-8"?>
<svg height="16px" viewBox="0 0 16 16" width="16px" xmlns="http://www.w3.org/2000/svg">
    <path d="m 4.292969 1.644531 c -0.199219 0 -0.359375 0.160157 -0.359375 0.359375 v 1.585938 h -2.003906 c -0.457032 0 -0.617188 0.277344 -0.621094 0.535156 v 0.0625 c 0.003906 0.257812 0.164062 0.535156 0.621094 0.535156 h 0.121093 h 0.007813 l 1.875 -0.003906 v 1.585938 c 0 0.199218 0.160156 0.359374 0.359375 0.359374 h 0.351562 l 5.066407 -4.753906 l -0.011719 0.011719 c 0.039062 -0.039063 0.082031 -0.078125 0.125 -0.117187 l -5.074219 -0.160157 z m 0 0"/>
    <path d="m 9.375 2.972656 l -5.09375 4.777344 l -0.324219 0.324219 c -0.140625 0.140625 -0.140625 0.371093 0 0.511719 l 1.121094 1.117187 l -1.324219 1.324219 c -0.007812 0.003906 -0.011718 0.007812 -0.015625 0.015625 l -0.078125 0.074219 c -0.320312 0.324218 -0.238281 0.632812 -0.0625 0.820312 l 0.023438 0.023438 l 0.023437 0.019531 c 0.183594 0.179687 0.496094 0.261719 0.816407 -0.058594 l 0.078124 -0.078125 c 0.003907 -0.003906 0.003907 -0.003906 0.007813 -0.007812 l 0.007813 -0.007813 l 1.320312 -1.324219 l 1.121094 1.121094 c 0.140625 0.140625 0.371094 0.140625 0.511718 0 l 0.03125 -0.035156 l 0.289063 -0.289063 l 1.320313 -1.40625 l 0.210937 -6.714843 v 0.015624 c 0 -0.074218 0.007813 -0.148437 0.015625 -0.222656 z m 0 0"/>
    <path d="m 12.160156 1.84375 h -0.910156 c -0.882812 0 -1.347656 0.640625 -1.347656 1.351562 l -0.25 7.953126 v 0.457031 c 0 0.199219 0.160156 0.359375 0.359375 0.359375 h 1.582031 v 1.871094 v 0.011718 v 0.117188 c 0 0.457031 0.277344 0.617187 0.535156 0.625 h 0.0625 c 0.257813 -0.007813 0.535156 -0.167969 0.535156 -0.625 v -2 h 1.582032 c 0.199218 0 0.363281 -0.160156 0.363281 -0.359375 v -0.097657 c 0 -0.003906 0 -0.003906 0 -0.007812 v -0.351562 l -0.253906 -7.953126 c 0 -0.710937 -0.464844 -1.351562 -1.347657 -1.351562 z m 0 0"/>
</svg>
