<?xml version="1.0" encoding="UTF-8"?>
<svg height="128px" viewBox="0 0 128 128" width="128px" xmlns="http://www.w3.org/2000/svg" xmlns:xlink="http://www.w3.org/1999/xlink">
    <clipPath id="a">
        <rect height="128" width="128"/>
    </clipPath>
    <clipPath id="b">
        <rect height="128" width="128"/>
    </clipPath>
    <filter id="c" height="100%" width="100%" x="0%" y="0%">
        <feColorMatrix in="SourceGraphic" type="matrix" values="0 0 0 0 1 0 0 0 0 1 0 0 0 0 1 0 0 0 1 0"/>
    </filter>
    <mask id="d">
        <g clip-path="url(#b)" filter="url(#c)">
            <g clip-path="url(#a)">
                <path d="m 117.734375 31.320312 l -0.015625 -8.359374 c 0 -8.101563 -5.882812 -12.367188 -12.398438 -12.367188 l -72.984374 -2.3125 h -3.753907 v 46.074219 h 3.753907 l 72.984374 -2.308594 c 6.515626 0 12.398438 -4.265625 12.398438 -12.367187 z m 0 0" fill="#ed333b"/>
                <path d="m 32.335938 11.59375 v 39.453125 c 0 1.828125 -1.480469 3.308594 -3.308594 3.308594 h -0.890625 c -1.828125 0 -3.308594 -1.480469 -3.308594 -3.308594 v -39.453125 c 0 -1.828125 1.480469 -3.308594 3.308594 -3.308594 h 0.890625 c 1.828125 0 3.308594 1.480469 3.308594 3.308594 z m 0 0" fill="#a51d2d"/>
                <path d="m 117.726562 26.523438 l -0.007812 -3.5625 c 0 -2.003907 -0.363281 -3.769532 -1 -5.296876 h -73.367188 c -2.003906 0 -3.628906 1.371094 -3.628906 3.0625 v 2.734376 c 0 1.691406 1.625 3.0625 3.628906 3.0625 z m 0 0" fill="#a51d2d"/>
                <path d="m 117.722656 25.15625 l -0.003906 -2.195312 c 0 -2.003907 -0.363281 -3.769532 -1 -5.296876 h -73.367188 c -1.179687 0.023438 -2.269531 0.433594 -2.925781 1.257813 c 0.007813 0.984375 0.015625 1.957031 0.015625 3.839844 c 0 1.429687 1.574219 2.394531 3.5625 2.394531 z m 0 0" fill="#c01c28"/>
                <path d="m 117.726562 36.117188 h -74.375 c -2.003906 0 -3.628906 1.371093 -3.628906 3.0625 v 2.734374 c 0 1.691407 1.625 3.0625 3.628906 3.0625 h 73.367188 c 0.636719 -1.527343 1 -3.292968 1 -5.296874 z m 0 0" fill="#a51d2d"/>
                <path d="m 117.726562 36.117188 h -74.375 c -1.179687 0.023437 -2.269531 0.433593 -2.925781 1.257812 c 0.007813 0.984375 0.015625 1.957031 0.015625 3.839844 c 0 1.429687 1.574219 2.394531 3.5625 2.394531 h 73.183594 c 0.339844 -1.191406 0.53125 -2.496094 0.53125 -3.929687 z m 0 0" fill="#c01c28"/>
                <path d="m 27.085938 31.320312 h -26.347657 v -0.28125 c 0.050781 -2.371093 1.53125 -4.921874 5.714844 -4.921874 l 20.632813 0.011718 z m 0 0 h -26.347657 v 0.28125 c 0.050781 2.371094 1.53125 4.921876 5.714844 4.921876 l 20.632813 -0.015626 z m 0 0" fill="#b5835a"/>
                <path d="m 28.582031 31.320312 h -26.738281 v -0.28125 c 0.050781 -2.371093 1.554688 -4.921874 5.800781 -4.921874 l 20.9375 0.011718 z m 0 0 h -26.738281 v 0.28125 c 0.050781 2.371094 1.554688 4.921876 5.800781 4.921876 l 20.9375 -0.015626 z m 0 0" fill="#cdab8f"/>
                <path d="m 104.703125 20.230469 l -5.921875 -5.902344 c -5.730469 -5.726563 -12.902344 -4.582031 -17.511719 0.023437 l -53.242187 49.972657 l -2.65625 2.65625 l 32.582031 32.578125 l 2.652344 -2.65625 l 49.972656 -53.238282 c 4.609375 -4.609374 5.753906 -11.785156 0.027344 -17.511718 z m 0 0" fill="#57e389"/>
                <path d="m 30.367188 66.664062 l 27.898437 27.898438 c 1.292969 1.292969 1.292969 3.390625 0 4.679688 l -0.628906 0.632812 c -1.292969 1.292969 -3.386719 1.292969 -4.679688 0 l -27.898437 -27.898438 c -1.292969 -1.292968 -1.292969 -3.386718 0 -4.679687 l 0.628906 -0.632813 c 1.292969 -1.289062 3.386719 -1.289062 4.679688 0 z m 0 0" fill="#26a269"/>
                <path d="m 101.304688 16.84375 l -2.523438 -2.515625 c -1.417969 -1.414063 -2.921875 -2.40625 -4.453125 -3.035156 l -51.878906 51.878906 c -1.417969 1.417969 -1.597657 3.535156 -0.402344 4.730469 l 1.933594 1.933594 c 1.195312 1.195312 3.316406 1.015624 4.730469 -0.398438 z m 0 0" fill="#26a269"/>
                <path d="m 100.335938 15.878906 l -1.554688 -1.550781 c -1.417969 -1.414063 -2.921875 -2.40625 -4.453125 -3.035156 l -51.878906 51.878906 c -0.816407 0.847656 -1.296875 1.90625 -1.179688 2.957031 c 0.703125 0.691406 1.394531 1.371094 2.726563 2.703125 c 1.011718 1.011719 2.808594 0.582031 4.210937 -0.824219 z m 0 0" fill="#2ec27e"/>
                <path d="m 108.089844 23.628906 l -52.59375 52.589844 c -1.414063 1.417969 -1.59375 3.535156 -0.398438 4.730469 l 1.933594 1.933593 c 1.195312 1.199219 3.3125 1.019532 4.730469 -0.398437 l 51.878906 -51.878906 c -0.628906 -1.53125 -1.621094 -3.035157 -3.035156 -4.453125 z m 0 0" fill="#26a269"/>
                <path d="m 108.089844 23.628906 l -52.378906 52.378906 l -0.214844 0.210938 c -0.8125 0.851562 -1.296875 1.910156 -1.175782 2.957031 c 0.699219 0.695313 1.394532 1.375 2.726563 2.707031 c 1.007813 1.011719 2.804687 0.578126 4.210937 -0.824218 l 51.75 -51.75 c -0.601562 -1.082032 -1.390624 -2.144532 -2.402343 -3.15625 z m 0 0" fill="#2ec27e"/>
                <path d="m 40.605469 84.328125 l -18.632813 18.632813 l -0.199218 -0.203126 c -1.640626 -1.710937 -2.398438 -4.5625 0.5625 -7.519531 l 14.597656 -14.582031 z m 0 0 l -18.632813 18.632813 l 0.199219 0.199218 c 1.714844 1.636719 4.566406 2.394532 7.523437 -0.5625 l 14.578126 -14.601562 z m 0 0" fill="#b5835a"/>
                <path d="m 41.664062 83.269531 l -18.910156 18.910157 l -0.199218 -0.203126 c -1.636719 -1.710937 -2.378907 -4.578124 0.621093 -7.582031 l 14.816407 -14.792969 z m 0 0 l -18.910156 18.910157 l 0.199219 0.199218 c 1.714844 1.636719 4.582031 2.378906 7.582031 -0.625 l 14.796875 -14.8125 z m 0 0" fill="#cdab8f"/>
                <path d="m 100.359375 10.101562 l -8.363281 0.015626 c -8.097656 0 -12.363282 5.878906 -12.363282 12.398437 l -2.3125 72.980469 v 3.757812 h 46.074219 v -3.757812 l -2.3125 -72.980469 c 0 -6.519531 -4.261719 -12.398437 -12.363281 -12.398437 z m 0 0" fill="#62a0ea"/>
                <path d="m 80.628906 95.5 h 39.457032 c 1.824218 0 3.308593 1.480469 3.308593 3.308594 v 0.890625 c 0 1.828125 -1.484375 3.308593 -3.308593 3.308593 h -39.457032 c -1.828125 0 -3.308594 -1.480468 -3.308594 -3.308593 v -0.890625 c 0 -1.828125 1.480469 -3.308594 3.308594 -3.308594 z m 0 0" fill="#1a5fb4"/>
                <path d="m 95.558594 10.109375 l -3.5625 0.007813 c -2 0 -3.765625 0.359374 -5.292969 1 v 73.367187 c 0 2.003906 1.367187 3.628906 3.058594 3.628906 h 2.734375 c 1.691406 0 3.066406 -1.625 3.0625 -3.628906 z m 0 0" fill="#1a5fb4"/>
                <path d="m 94.195312 10.113281 l -2.199218 0.003907 c -2 0 -3.765625 0.359374 -5.292969 1 v 73.367187 c 0.023437 1.175781 0.429687 2.265625 1.253906 2.925781 c 0.988281 -0.007812 1.957031 -0.015625 3.839844 -0.015625 c 1.433594 0 2.398437 -1.574219 2.398437 -3.5625 z m 0 0" fill="#1c71d8"/>
                <path d="m 105.15625 10.109375 v 74.375 c 0 2.003906 1.367188 3.628906 3.058594 3.628906 h 2.734375 c 1.691406 0 3.066406 -1.625 3.0625 -3.628906 v -73.367187 c -1.523438 -0.640626 -3.292969 -1 -5.292969 -1 z m 0 0" fill="#1a5fb4"/>
                <path d="m 105.15625 10.109375 v 74.375 c 0.023438 1.175781 0.429688 2.265625 1.253906 2.925781 c 0.988282 -0.007812 1.957032 -0.015625 3.84375 -0.015625 c 1.429688 0 2.394532 -1.574219 2.394532 -3.5625 v -73.183593 c -1.191407 -0.339844 -2.496094 -0.53125 -3.929688 -0.53125 z m 0 0" fill="#1c71d8"/>
                <path d="m 100.355469 100.746094 v 26.351562 h -0.28125 c -2.371094 -0.050781 -4.921875 -1.53125 -4.921875 -5.71875 l 0.015625 -20.632812 z m 0 0 v 26.351562 h 0.285156 c 2.371094 -0.050781 4.921875 -1.53125 4.921875 -5.71875 l -0.015625 -20.632812 z m 0 0" fill="#b5835a"/>
                <path d="m 100.355469 99.253906 v 26.738282 h -0.28125 c -2.371094 -0.054688 -4.921875 -1.554688 -4.921875 -5.800782 l 0.015625 -20.9375 z m 0 0 v 26.738282 h 0.285156 c 2.371094 -0.054688 4.921875 -1.554688 4.921875 -5.800782 l -0.015625 -20.9375 z m 0 0" fill="#cdab8f"/>
            </g>
        </g>
    </mask>
    <mask id="e">
        <g filter="url(#c)">
            <rect fill-opacity="0.8" height="128" width="128"/>
        </g>
    </mask>
    <linearGradient id="f" gradientTransform="matrix(0 0.37 -0.98462 0 295.38501 -30.360001)" gradientUnits="userSpaceOnUse" x1="300" x2="428" y1="235" y2="235">
        <stop offset="0" stop-color="#f9f06b"/>
        <stop offset="1" stop-color="#f5c211"/>
    </linearGradient>
    <clipPath id="g">
        <rect height="128" width="128"/>
    </clipPath>
    <clipPath id="h">
        <rect height="128" width="128"/>
    </clipPath>
    <path d="m 117.734375 31.320312 l -0.015625 -8.359374 c 0 -8.101563 -5.882812 -12.367188 -12.398438 -12.367188 l -72.984374 -2.3125 h -3.753907 v 46.074219 h 3.753907 l 72.984374 -2.308594 c 6.515626 0 12.398438 -4.265625 12.398438 -12.367187 z m 0 0" fill="#ed333b"/>
    <path d="m 32.335938 11.59375 v 39.453125 c 0 1.828125 -1.480469 3.308594 -3.308594 3.308594 h -0.890625 c -1.828125 0 -3.308594 -1.480469 -3.308594 -3.308594 v -39.453125 c 0 -1.828125 1.480469 -3.308594 3.308594 -3.308594 h 0.890625 c 1.828125 0 3.308594 1.480469 3.308594 3.308594 z m 0 0" fill="#a51d2d"/>
    <path d="m 117.726562 26.523438 l -0.007812 -3.5625 c 0 -2.003907 -0.363281 -3.769532 -1 -5.296876 h -73.367188 c -2.003906 0 -3.628906 1.371094 -3.628906 3.0625 v 2.734376 c 0 1.691406 1.625 3.0625 3.628906 3.0625 z m 0 0" fill="#a51d2d"/>
    <path d="m 117.722656 25.15625 l -0.003906 -2.195312 c 0 -2.003907 -0.363281 -3.769532 -1 -5.296876 h -73.367188 c -1.179687 0.023438 -2.269531 0.433594 -2.925781 1.257813 c 0.007813 0.984375 0.015625 1.957031 0.015625 3.839844 c 0 1.429687 1.574219 2.394531 3.5625 2.394531 z m 0 0" fill="#c01c28"/>
    <path d="m 117.726562 36.117188 h -74.375 c -2.003906 0 -3.628906 1.371093 -3.628906 3.0625 v 2.734374 c 0 1.691407 1.625 3.0625 3.628906 3.0625 h 73.367188 c 0.636719 -1.527343 1 -3.292968 1 -5.296874 z m 0 0" fill="#a51d2d"/>
    <path d="m 117.726562 36.117188 h -74.375 c -1.179687 0.023437 -2.269531 0.433593 -2.925781 1.257812 c 0.007813 0.984375 0.015625 1.957031 0.015625 3.839844 c 0 1.429687 1.574219 2.394531 3.5625 2.394531 h 73.183594 c 0.339844 -1.191406 0.53125 -2.496094 0.53125 -3.929687 z m 0 0" fill="#c01c28"/>
    <path d="m 27.085938 31.320312 h -26.347657 v -0.28125 c 0.050781 -2.371093 1.53125 -4.921874 5.714844 -4.921874 l 20.632813 0.011718 z m 0 0 h -26.347657 v 0.28125 c 0.050781 2.371094 1.53125 4.921876 5.714844 4.921876 l 20.632813 -0.015626 z m 0 0" fill="#b5835a"/>
    <path d="m 28.582031 31.320312 h -26.738281 v -0.28125 c 0.050781 -2.371093 1.554688 -4.921874 5.800781 -4.921874 l 20.9375 0.011718 z m 0 0 h -26.738281 v 0.28125 c 0.050781 2.371094 1.554688 4.921876 5.800781 4.921876 l 20.9375 -0.015626 z m 0 0" fill="#cdab8f"/>
    <path d="m 104.703125 20.230469 l -5.921875 -5.902344 c -5.730469 -5.726563 -12.902344 -4.582031 -17.511719 0.023437 l -53.242187 49.972657 l -2.65625 2.65625 l 32.582031 32.578125 l 2.652344 -2.65625 l 49.972656 -53.238282 c 4.609375 -4.609374 5.753906 -11.785156 0.027344 -17.511718 z m 0 0" fill="#57e389"/>
    <path d="m 30.367188 66.664062 l 27.898437 27.898438 c 1.292969 1.292969 1.292969 3.390625 0 4.679688 l -0.628906 0.632812 c -1.292969 1.292969 -3.386719 1.292969 -4.679688 0 l -27.898437 -27.898438 c -1.292969 -1.292968 -1.292969 -3.386718 0 -4.679687 l 0.628906 -0.632813 c 1.292969 -1.289062 3.386719 -1.289062 4.679688 0 z m 0 0" fill="#26a269"/>
    <path d="m 101.304688 16.84375 l -2.523438 -2.515625 c -1.417969 -1.414063 -2.921875 -2.40625 -4.453125 -3.035156 l -51.878906 51.878906 c -1.417969 1.417969 -1.597657 3.535156 -0.402344 4.730469 l 1.933594 1.933594 c 1.195312 1.195312 3.316406 1.015624 4.730469 -0.398438 z m 0 0" fill="#26a269"/>
    <path d="m 100.335938 15.878906 l -1.554688 -1.550781 c -1.417969 -1.414063 -2.921875 -2.40625 -4.453125 -3.035156 l -51.878906 51.878906 c -0.816407 0.847656 -1.296875 1.90625 -1.179688 2.957031 c 0.703125 0.691406 1.394531 1.371094 2.726563 2.703125 c 1.011718 1.011719 2.808594 0.582031 4.210937 -0.824219 z m 0 0" fill="#2ec27e"/>
    <path d="m 108.089844 23.628906 l -52.59375 52.589844 c -1.414063 1.417969 -1.59375 3.535156 -0.398438 4.730469 l 1.933594 1.933593 c 1.195312 1.199219 3.3125 1.019532 4.730469 -0.398437 l 51.878906 -51.878906 c -0.628906 -1.53125 -1.621094 -3.035157 -3.035156 -4.453125 z m 0 0" fill="#26a269"/>
    <path d="m 108.089844 23.628906 l -52.378906 52.378906 l -0.214844 0.210938 c -0.8125 0.851562 -1.296875 1.910156 -1.175782 2.957031 c 0.699219 0.695313 1.394532 1.375 2.726563 2.707031 c 1.007813 1.011719 2.804687 0.578126 4.210937 -0.824218 l 51.75 -51.75 c -0.601562 -1.082032 -1.390624 -2.144532 -2.402343 -3.15625 z m 0 0" fill="#2ec27e"/>
    <path d="m 40.605469 84.328125 l -18.632813 18.632813 l -0.199218 -0.203126 c -1.640626 -1.710937 -2.398438 -4.5625 0.5625 -7.519531 l 14.597656 -14.582031 z m 0 0 l -18.632813 18.632813 l 0.199219 0.199218 c 1.714844 1.636719 4.566406 2.394532 7.523437 -0.5625 l 14.578126 -14.601562 z m 0 0" fill="#b5835a"/>
    <path d="m 41.664062 83.269531 l -18.910156 18.910157 l -0.199218 -0.203126 c -1.636719 -1.710937 -2.378907 -4.578124 0.621093 -7.582031 l 14.816407 -14.792969 z m 0 0 l -18.910156 18.910157 l 0.199219 0.199218 c 1.714844 1.636719 4.582031 2.378906 7.582031 -0.625 l 14.796875 -14.8125 z m 0 0" fill="#cdab8f"/>
    <path d="m 100.359375 10.101562 l -8.363281 0.015626 c -8.097656 0 -12.363282 5.878906 -12.363282 12.398437 l -2.3125 72.980469 v 3.757812 h 46.074219 v -3.757812 l -2.3125 -72.980469 c 0 -6.519531 -4.261719 -12.398437 -12.363281 -12.398437 z m 0 0" fill="#62a0ea"/>
    <path d="m 80.628906 95.5 h 39.457032 c 1.824218 0 3.308593 1.480469 3.308593 3.308594 v 0.890625 c 0 1.828125 -1.484375 3.308593 -3.308593 3.308593 h -39.457032 c -1.828125 0 -3.308594 -1.480468 -3.308594 -3.308593 v -0.890625 c 0 -1.828125 1.480469 -3.308594 3.308594 -3.308594 z m 0 0" fill="#1a5fb4"/>
    <path d="m 95.558594 10.109375 l -3.5625 0.007813 c -2 0 -3.765625 0.359374 -5.292969 1 v 73.367187 c 0 2.003906 1.367187 3.628906 3.058594 3.628906 h 2.734375 c 1.691406 0 3.066406 -1.625 3.0625 -3.628906 z m 0 0" fill="#1a5fb4"/>
    <path d="m 94.195312 10.113281 l -2.199218 0.003907 c -2 0 -3.765625 0.359374 -5.292969 1 v 73.367187 c 0.023437 1.175781 0.429687 2.265625 1.253906 2.925781 c 0.988281 -0.007812 1.957031 -0.015625 3.839844 -0.015625 c 1.433594 0 2.398437 -1.574219 2.398437 -3.5625 z m 0 0" fill="#1c71d8"/>
    <path d="m 105.15625 10.109375 v 74.375 c 0 2.003906 1.367188 3.628906 3.058594 3.628906 h 2.734375 c 1.691406 0 3.066406 -1.625 3.0625 -3.628906 v -73.367187 c -1.523438 -0.640626 -3.292969 -1 -5.292969 -1 z m 0 0" fill="#1a5fb4"/>
    <path d="m 105.15625 10.109375 v 74.375 c 0.023438 1.175781 0.429688 2.265625 1.253906 2.925781 c 0.988282 -0.007812 1.957032 -0.015625 3.84375 -0.015625 c 1.429688 0 2.394532 -1.574219 2.394532 -3.5625 v -73.183593 c -1.191407 -0.339844 -2.496094 -0.53125 -3.929688 -0.53125 z m 0 0" fill="#1c71d8"/>
    <path d="m 100.355469 100.746094 v 26.351562 h -0.28125 c -2.371094 -0.050781 -4.921875 -1.53125 -4.921875 -5.71875 l 0.015625 -20.632812 z m 0 0 v 26.351562 h 0.285156 c 2.371094 -0.050781 4.921875 -1.53125 4.921875 -5.71875 l -0.015625 -20.632812 z m 0 0" fill="#b5835a"/>
    <path d="m 100.355469 99.253906 v 26.738282 h -0.28125 c -2.371094 -0.054688 -4.921875 -1.554688 -4.921875 -5.800782 l 0.015625 -20.9375 z m 0 0 v 26.738282 h 0.285156 c 2.371094 -0.054688 4.921875 -1.554688 4.921875 -5.800782 l -0.015625 -20.9375 z m 0 0" fill="#cdab8f"/>
    <g clip-path="url(#h)" mask="url(#d)">
        <g clip-path="url(#g)" mask="url(#e)">
            <path d="m 128 80.640625 v 47.359375 h -128 v -47.359375 z m 0 0" fill="url(#f)"/>
            <path d="m 13.308594 80.640625 l 47.355468 47.359375 h 21.214844 l -47.359375 -47.359375 z m 42.421875 0 l 47.363281 47.359375 h 21.214844 l -47.363282 -47.359375 z m 42.429687 0 l 29.839844 29.839844 v -21.210938 l -8.628906 -8.628906 z m -98.160156 7.90625 v 21.214844 l 18.238281 18.238281 h 21.214844 z m 0 0"/>
        </g>
    </g>
</svg>
