<?xml version="1.0" encoding="UTF-8" standalone="no"?>
<svg
   height="594.08203"
   viewBox="0 0 613.28125 594.08203"
   width="613.28125"
   version="1.1"
   id="svg4137"
   xmlns="http://www.w3.org/2000/svg"
   xmlns:svg="http://www.w3.org/2000/svg">
  <defs
     id="defs4141" />
  <g
     id="g4167"
     transform="matrix(5,0,0,5,-3.691405,-41.40625)">
    <path
       d="m 117.73438,31.320312 -0.0156,-8.359374 c 0,-8.101563 -5.88281,-12.367188 -12.39844,-12.367188 L 32.335938,8.28125 h -3.753907 v 46.074219 h 3.753907 l 72.984372,-2.308594 c 6.51563,0 12.39844,-4.265625 12.39844,-12.367187 z m 0,0"
       fill="#ed333b"
       id="path4089" />
    <path
       d="m 32.335938,11.59375 v 39.453125 c 0,1.828125 -1.480469,3.308594 -3.308594,3.308594 h -0.890625 c -1.828125,0 -3.308594,-1.480469 -3.308594,-3.308594 V 11.59375 c 0,-1.828125 1.480469,-3.308594 3.308594,-3.308594 h 0.890625 c 1.828125,0 3.308594,1.480469 3.308594,3.308594 z m 0,0"
       fill="#a51d2d"
       id="path4091" />
    <path
       d="m 117.72656,26.523438 -0.008,-3.5625 c 0,-2.003907 -0.36328,-3.769532 -1,-5.296876 H 43.351562 c -2.003906,0 -3.628906,1.371094 -3.628906,3.0625 v 2.734376 c 0,1.691406 1.625,3.0625 3.628906,3.0625 z m 0,0"
       fill="#a51d2d"
       id="path4093" />
    <path
       d="m 117.72266,25.15625 -0.004,-2.195312 c 0,-2.003907 -0.36328,-3.769532 -1,-5.296876 H 43.351562 c -1.179687,0.02344 -2.269531,0.433594 -2.925781,1.257813 0.0078,0.984375 0.01563,1.957031 0.01563,3.839844 0,1.429687 1.574219,2.394531 3.5625,2.394531 z m 0,0"
       fill="#c01c28"
       id="path4095" />
    <path
       d="M 117.72656,36.117188 H 43.351562 c -2.003906,0 -3.628906,1.371093 -3.628906,3.0625 v 2.734374 c 0,1.691407 1.625,3.0625 3.628906,3.0625 h 73.367188 c 0.63672,-1.527343 1,-3.292968 1,-5.296874 z m 0,0"
       fill="#a51d2d"
       id="path4097" />
    <path
       d="M 117.72656,36.117188 H 43.351562 c -1.179687,0.02344 -2.269531,0.433593 -2.925781,1.257812 0.0078,0.984375 0.01563,1.957031 0.01563,3.839844 0,1.429687 1.574219,2.394531 3.5625,2.394531 H 117.1875 c 0.33984,-1.191406 0.53125,-2.496094 0.53125,-3.929687 z m 0,0"
       fill="#c01c28"
       id="path4099" />
    <path
       d="M 27.085938,31.320312 H 0.738281 v -0.28125 c 0.050781,-2.371093 1.53125,-4.921874 5.714844,-4.921874 l 20.632813,0.01172 z m 0,0 H 0.738281 v 0.28125 c 0.050781,2.371094 1.53125,4.921876 5.714844,4.921876 l 20.632813,-0.01563 z m 0,0"
       fill="#b5835a"
       id="path4101" />
    <path
       d="M 28.582031,31.320312 H 1.84375 v -0.28125 c 0.050781,-2.371093 1.554688,-4.921874 5.800781,-4.921874 l 20.9375,0.01172 z m 0,0 H 1.84375 v 0.28125 c 0.050781,2.371094 1.554688,4.921876 5.800781,4.921876 l 20.9375,-0.01563 z m 0,0"
       fill="#cdab8f"
       id="path4103" />
    <path
       d="M 104.70313,20.230469 98.78125,14.328125 C 93.050781,8.601562 85.878906,9.746094 81.269531,14.351562 l -53.242187,49.972657 -2.65625,2.65625 32.582031,32.578125 2.652344,-2.65625 49.972661,-53.238282 c 4.60937,-4.609374 5.7539,-11.785156 0.0273,-17.511718 z m 0,0"
       fill="#57e389"
       id="path4105" />
    <path
       d="M 30.367188,66.664062 58.265625,94.5625 c 1.292969,1.292969 1.292969,3.390625 0,4.679688 L 57.636719,99.875 c -1.292969,1.29297 -3.386719,1.29297 -4.679688,0 L 25.058594,71.976562 c -1.292969,-1.292968 -1.292969,-3.386718 0,-4.679687 L 25.6875,66.664062 c 1.292969,-1.289062 3.386719,-1.289062 4.679688,0 z m 0,0"
       fill="#26a269"
       id="path4107" />
    <path
       d="m 101.30469,16.84375 -2.52344,-2.515625 c -1.417969,-1.414063 -2.921875,-2.40625 -4.453125,-3.035156 L 42.449219,63.171875 c -1.417969,1.417969 -1.597657,3.535156 -0.402344,4.730469 l 1.933594,1.933594 c 1.195312,1.195312 3.316406,1.015624 4.730469,-0.398438 z m 0,0"
       fill="#26a269"
       id="path4109" />
    <path
       d="m 100.33594,15.878906 -1.55469,-1.550781 c -1.417969,-1.414063 -2.921875,-2.40625 -4.453125,-3.035156 L 42.449219,63.171875 c -0.816407,0.847656 -1.296875,1.90625 -1.179688,2.957031 0.703125,0.691406 1.394531,1.371094 2.726563,2.703125 1.011718,1.011719 2.808594,0.582031 4.210937,-0.824219 z m 0,0"
       fill="#2ec27e"
       id="path4111" />
    <path
       d="M 108.08984,23.628906 55.496094,76.21875 c -1.414063,1.417969 -1.59375,3.535156 -0.398438,4.730469 l 1.933594,1.933593 c 1.195312,1.199219 3.3125,1.019532 4.730469,-0.398437 L 113.64063,30.605469 c -0.62891,-1.53125 -1.6211,-3.035157 -3.03516,-4.453125 z m 0,0"
       fill="#26a269"
       id="path4113" />
    <path
       d="M 108.08984,23.628906 55.710938,76.007812 55.496094,76.21875 c -0.8125,0.851562 -1.296875,1.910156 -1.175782,2.957031 0.699219,0.695313 1.394532,1.375 2.726563,2.707031 1.007813,1.011719 2.804687,0.578126 4.210937,-0.824218 l 51.749998,-51.75 c -0.60156,-1.082032 -1.39062,-2.144532 -2.40234,-3.15625 z m 0,0"
       fill="#2ec27e"
       id="path4115" />
    <path
       d="m 40.605469,84.328125 -18.632813,18.632815 -0.199218,-0.20313 c -1.640626,-1.71093 -2.398438,-4.562498 0.5625,-7.519529 L 36.933594,80.65625 Z m 0,0 -18.632813,18.632815 0.199219,0.19922 c 1.714844,1.63672 4.566406,2.39453 7.523437,-0.5625 L 44.273438,87.996094 Z m 0,0"
       fill="#b5835a"
       id="path4117" />
    <path
       d="m 41.664062,83.269531 -18.910156,18.910159 -0.199218,-0.20313 c -1.636719,-1.71093 -2.378907,-4.578122 0.621093,-7.582029 L 37.992188,79.601562 Z m 0,0 -18.910156,18.910159 0.199219,0.19922 c 1.714844,1.63672 4.582031,2.3789 7.582031,-0.625 L 45.332031,86.941406 Z m 0,0"
       fill="#cdab8f"
       id="path4119" />
    <path
       d="m 100.35938,10.101562 -8.363286,0.01563 c -8.097656,0 -12.363282,5.878906 -12.363282,12.398437 l -2.3125,72.980469 v 3.757812 h 46.074218 v -3.757812 l -2.3125,-72.980469 c 0,-6.519531 -4.26172,-12.398437 -12.36328,-12.398437 z m 0,0"
       fill="#62a0ea"
       id="path4121" />
    <path
       d="m 80.628906,95.5 h 39.457034 c 1.82422,0 3.30859,1.480469 3.30859,3.308594 v 0.890625 c 0,1.828121 -1.48437,3.308591 -3.30859,3.308591 H 80.628906 c -1.828125,0 -3.308594,-1.48047 -3.308594,-3.308591 v -0.890625 c 0,-1.828125 1.480469,-3.308594 3.308594,-3.308594 z m 0,0"
       fill="#1a5fb4"
       id="path4123" />
    <path
       d="m 95.558594,10.109375 -3.5625,0.0078 c -2,0 -3.765625,0.359374 -5.292969,1 v 73.367187 c 0,2.003906 1.367187,3.628906 3.058594,3.628906 h 2.734375 c 1.691406,0 3.066406,-1.625 3.0625,-3.628906 z m 0,0"
       fill="#1a5fb4"
       id="path4125" />
    <path
       d="m 94.195312,10.113281 -2.199218,0.0039 c -2,0 -3.765625,0.359374 -5.292969,1 v 73.367187 c 0.02344,1.175781 0.429687,2.265625 1.253906,2.925781 0.988281,-0.0078 1.957031,-0.01563 3.839844,-0.01563 1.433594,0 2.398437,-1.574219 2.398437,-3.5625 z m 0,0"
       fill="#1c71d8"
       id="path4127" />
    <path
       d="m 105.15625,10.109375 v 74.375 c 0,2.003906 1.36719,3.628906 3.05859,3.628906 h 2.73438 c 1.69141,0 3.06641,-1.625 3.0625,-3.628906 V 11.117188 c -1.52344,-0.640626 -3.29297,-1 -5.29297,-1 z m 0,0"
       fill="#1a5fb4"
       id="path4129" />
    <path
       d="m 105.15625,10.109375 v 74.375 c 0.0234,1.175781 0.42969,2.265625 1.25391,2.925781 0.98828,-0.0078 1.95703,-0.01563 3.84375,-0.01563 1.42968,0 2.39453,-1.574219 2.39453,-3.5625 V 10.648438 c -1.19141,-0.339844 -2.4961,-0.53125 -3.92969,-0.53125 z m 0,0"
       fill="#1c71d8"
       id="path4131" />
    <path
       d="m 100.35547,100.74609 v 26.35157 h -0.28125 c -2.371095,-0.0508 -4.921876,-1.53125 -4.921876,-5.71875 l 0.01563,-20.63282 z m 0,0 v 26.35157 h 0.28516 c 2.37109,-0.0508 4.92187,-1.53125 4.92187,-5.71875 l -0.0156,-20.63282 z m 0,0"
       fill="#b5835a"
       id="path4133" />
    <path
       d="m 100.35547,99.253906 v 26.738284 h -0.28125 c -2.371095,-0.0547 -4.921876,-1.55469 -4.921876,-5.80078 l 0.01563,-20.937504 z m 0,0 v 26.738284 h 0.28516 c 2.37109,-0.0547 4.92187,-1.55469 4.92187,-5.80078 l -0.0156,-20.937504 z m 0,0"
       fill="#cdab8f"
       id="path4135" />
  </g>
</svg>
